<?xml version="1.0" encoding="utf-8"?>
<!-- Generator: Adobe Illustrator 18.1.0, SVG Export Plug-In . SVG Version: 6.00 Build 0)  -->
<!DOCTYPE svg PUBLIC "-//W3C//DTD SVG 1.1//EN" "http://www.w3.org/Graphics/SVG/1.1/DTD/svg11.dtd">
<svg version="1.1" id="Layer_1" xmlns="http://www.w3.org/2000/svg" xmlns:xlink="http://www.w3.org/1999/xlink" x="0px" y="0px"
	 viewBox="0 0 922.2 187.1" enable-background="new 0 0 922.2 187.1" xml:space="preserve">
<g>
	<g>
		<g>
			<g>
				<path fill="#EE3E24" d="M809.9,89c0-8.1-6.6-14.6-14.7-14.6c-8.1,0-14.7,6.6-14.7,14.6c0,8.1,6.6,14.7,14.7,14.7
					C803.3,103.7,809.9,97.1,809.9,89z"/>
			</g>
			<g>
				<path fill="#EE3E24" d="M809.9,51.8c0-8.1-6.6-14.6-14.7-14.6c-8.1,0-14.7,6.6-14.7,14.6c0,8.1,6.6,14.6,14.7,14.6
					C803.3,66.5,809.9,59.9,809.9,51.8z"/>
			</g>
			<g>
				<path fill="#EE3E24" d="M847.3,51.8c0-8.1-6.6-14.6-14.7-14.6c-8.1,0-14.7,6.6-14.7,14.6c0,8.1,6.6,14.6,14.7,14.6
					C840.7,66.5,847.3,59.9,847.3,51.8z"/>
			</g>
			<g>
				<path fill="#EE3E24" d="M847.3,14.7c0-8.1-6.6-14.7-14.7-14.7C824.6,0,818,6.6,818,14.7c0,8.1,6.6,14.6,14.7,14.6
					C840.7,29.3,847.3,22.7,847.3,14.7z"/>
			</g>
		</g>
		<g>
			<g>
				<path fill="#414141" d="M832.7,74.4c8.1,0,14.7,6.6,14.7,14.6c0,8.1-6.6,14.7-14.7,14.7c-8.1,0-14.6-6.6-14.6-14.7
					C818,80.9,824.6,74.4,832.7,74.4z"/>
			</g>
			<g>
				<path fill="#414141" d="M870,74.4c8.1,0,14.7,6.6,14.7,14.6c0,8.1-6.6,14.7-14.7,14.7c-8.1,0-14.7-6.6-14.7-14.7
					C855.4,80.9,862,74.4,870,74.4z"/>
			</g>
			<g>
				<path fill="#414141" d="M870,37.2c8.1,0,14.7,6.6,14.7,14.7s-6.6,14.7-14.7,14.7c-8.1,0-14.7-6.6-14.7-14.7S862,37.2,870,37.2z"
					/>
			</g>
			<g>
				<path fill="#414141" d="M907.3,37.2c8.1,0,14.7,6.6,14.7,14.7s-6.6,14.7-14.7,14.7c-8.1,0-14.7-6.6-14.7-14.7
					S899.2,37.2,907.3,37.2z"/>
			</g>
		</g>
	</g>
	<g>
		<path fill="#414141" d="M204.5,29h15.6l-42.3,37.3l42.2,37.3h-15.5l-37.8-32h-1v32h-10.6V9.3h10.6V61h1L204.5,29z"/>
		<path fill="#414141" d="M282.4,29H298l-42.3,37.3l42.2,37.3h-15.5l-37.8-32h-1v32H233V9.3h10.6V61h1L282.4,29z"/>
		<g>
			<path fill="#414141" d="M464.4,2.1H475V88c0,1.4,0.5,2.6,1.5,3.6c1,1,2.2,1.5,3.6,1.5h12.7V104h-12.7c-4.3,0-8-1.6-11.1-4.7
				c-3.1-3.1-4.6-6.9-4.6-11.3V2.1z"/>
			<path fill="#414141" d="M563,27.2c4.4,0,8.1,1.6,11.2,4.7c3.1,3.1,4.6,6.9,4.6,11.3V104h-60.9c-4.3,0-8-1.6-11.1-4.7
				c-3.1-3.1-4.6-6.9-4.6-11.3V60.2H568V43.3c0-1.4-0.5-2.6-1.5-3.6c-1-1-2.2-1.5-3.6-1.5h-60.8V27.2H563z M568,93.2V71.1h-55.2V88
				c0,1.4,0.5,2.6,1.5,3.6c1,1,2.2,1.5,3.6,1.5H568z"/>
			<path fill="#414141" d="M650.1,27.2c4.3,0,8,1.6,11.1,4.7c3.1,3.1,4.6,6.9,4.6,11.3V88c0,4.4-1.5,8.2-4.6,11.3
				c-3.1,3.1-6.8,4.7-11.1,4.7h-60.9V2.1h10.6v25.1H650.1z M655.1,88V43.3c0-1.4-0.5-2.6-1.5-3.6c-1-1-2.2-1.5-3.6-1.5H605
				c-1.4,0-2.6,0.5-3.6,1.5c-1,1-1.6,2.2-1.6,3.6V88c0,1.4,0.5,2.6,1.6,3.6c1,1,2.2,1.5,3.6,1.5h45.1c1.4,0,2.6-0.5,3.6-1.5
				C654.6,90.6,655.1,89.4,655.1,88z"/>
			<path fill="#414141" d="M751.4,43.3v1.1h-10.7v-1.1c0-1.4-0.5-2.6-1.5-3.6c-1-1-2.2-1.5-3.6-1.5h-45.1c-1.4,0-2.6,0.5-3.6,1.5
				c-1,1-1.5,2.2-1.5,3.6V55c0,1.4,0.5,2.6,1.5,3.6c1,1,2.2,1.5,3.6,1.5h45.1c4.4,0,8.1,1.6,11.2,4.7c3.1,3.1,4.6,6.9,4.6,11.3V88
				c0,4.4-1.5,8.2-4.6,11.3c-3.1,3.1-6.8,4.7-11.2,4.7h-45.1c-4.3,0-8-1.6-11.1-4.7c-3.1-3.1-4.6-6.9-4.6-11.3v-1.1h10.6V88
				c0,1.4,0.5,2.6,1.5,3.6c1,1,2.2,1.5,3.6,1.5h45.1c1.4,0,2.6-0.5,3.6-1.5c1-1,1.5-2.2,1.5-3.6V76.2c0-1.4-0.5-2.6-1.5-3.6
				c-1-1-2.2-1.5-3.6-1.5h-45.1c-4.3,0-8-1.6-11.1-4.7c-3.1-3.1-4.6-6.9-4.6-11.3V43.3c0-4.4,1.5-8.2,4.6-11.3
				c3.1-3.1,6.8-4.7,11.1-4.7h45.1c4.4,0,8.1,1.6,11.2,4.7C749.9,35.1,751.4,38.8,751.4,43.3z"/>
		</g>
		<path fill="#414141" d="M15.7,29h42v10.6h-42c-1.4,0-2.6,0.5-3.5,1.5c-1,1-1.5,2.2-1.5,3.5v59.1H0.2V44.5c0-4.3,1.5-8,4.6-11
			C7.8,30.5,11.4,29,15.7,29z"/>
		<path fill="#414141" d="M80.9,29h44.8c4.4,0,8.1,1.5,11.1,4.6c3,3.1,4.6,6.7,4.6,11v43.5c0,4.3-1.5,8-4.6,11
			c-3,3.1-6.8,4.6-11.1,4.6H80.9c-4.3,0-8-1.5-11-4.6c-3.1-3-4.6-6.7-4.6-11V44.5c0-4.3,1.5-8,4.6-11C72.9,30.5,76.6,29,80.9,29z
			 M125.7,39.5H80.9c-1.4,0-2.6,0.5-3.5,1.5c-1,1-1.5,2.2-1.5,3.5v43.5c0,1.4,0.5,2.6,1.5,3.5c1,1,2.2,1.5,3.5,1.5h44.8
			c1.4,0,2.6-0.5,3.5-1.5c1-1,1.5-2.2,1.5-3.5V44.5c0-1.4-0.5-2.6-1.5-3.5C128.2,40,127,39.5,125.7,39.5z"/>
		<path fill="#414141" d="M409.2,29h42v10.6h-42c-1.4,0-2.6,0.5-3.5,1.5c-1,1-1.5,2.2-1.5,3.5v59.1h-10.5V44.5c0-4.3,1.5-8,4.6-11
			C401.3,30.5,404.9,29,409.2,29z"/>
		<g>
			<path fill="#414141" d="M379.6,42.3c0-3.7-1.3-6.8-3.9-9.4c-2.6-2.6-5.8-3.9-9.4-3.9h-58.9v10.6h58.9c0.8,0,1.4,0.3,1.9,0.8
				c0.5,0.5,0.8,1.2,0.8,1.9v16.5c0,0.7-0.3,1.4-0.8,1.9c-0.5,0.5-1.2,0.8-1.9,0.8h-51.3v9.8h51.3c0.8,0,1.4,0.3,1.9,0.8
				c0.5,0.5,0.8,1.2,0.8,1.9v16.3c0,0.8-0.3,1.4-0.8,1.9c-0.5,0.5-1.1,0.8-1.9,0.8h-58.9l0.1,10.6h58.8c3.6,0,6.8-1.3,9.4-3.9
				c2.6-2.6,3.9-5.8,3.9-9.4V73.6c0-2.7-0.7-5.1-2.2-7.3c1.4-2.2,2.2-4.6,2.2-7.3V42.3z"/>
		</g>
	</g>
	<g>
		<path fill="#414141" d="M23.4,164.9c-2.7,2.7-6.2,4-9.7,4c-7.5,0-13.7-5.2-13.7-13.6c0-8.4,6-13.6,13.7-13.6c3.5,0,7,1.3,9.7,4
			l-1.7,1.7c-2.2-2.2-5.1-3.2-8-3.2c-6,0-11.1,3.9-11.1,11.1c0,7.2,5.1,11.1,11.1,11.1c2.9,0,5.8-1.1,7.9-3.3L23.4,164.9z"/>
		<path fill="#414141" d="M36.8,155.4c0-8.5,6-13.9,13.5-13.9c7.5,0,13.5,5.4,13.5,13.9c0,8.5-6,13.7-13.5,13.7
			C42.8,169,36.8,163.9,36.8,155.4z M61.3,155.4c0-6.9-4.9-11.4-11-11.4c-6,0-11,4.5-11,11.4c0,6.9,4.9,11.1,11,11.1
			C56.3,166.5,61.3,162.3,61.3,155.4z"/>
		<path fill="#414141" d="M77.7,153.6c0-2.5,1.8-4.1,4.2-4.1c2.3,0,4.1,1.6,4.1,4.1c0,2.5-1.8,4.1-4.1,4.1
			C79.5,157.8,77.7,156.1,77.7,153.6z"/>
		<path fill="#414141" d="M102.3,130.9v16.9c2.2-4.3,6.5-6.3,11.1-6.3c7.4,0,13.4,5,13.4,13.8c0,8.9-5.9,13.8-13.3,13.8
			c-4.5,0-8.9-2.3-11.1-6.3v5.9h-2.6v-37.8H102.3z M102.3,155.3c0,6.6,4.6,11.2,10.9,11.2c6,0,10.9-3.8,10.9-11.2
			c0-7.5-4.9-11.2-10.9-11.2C107.1,144.1,102.3,148.6,102.3,155.3z"/>
		<path fill="#414141" d="M163.3,168.7v-4.8c-2.1,3.7-5.8,5.2-9.5,5.2c-7.1,0-12-4.4-12-11.8v-15.4h2.6v15.3c0,6,3.7,9.3,9.5,9.2
			c5.5-0.1,9.3-4.2,9.3-9.7v-14.8h2.6v26.7H163.3z"/>
		<path fill="#414141" d="M185,133.3c0,2.8-4.3,2.8-4.3,0C180.7,130.5,185,130.5,185,133.3z M181.5,141.9v26.8h2.6v-26.8H181.5z"/>
		<path fill="#414141" d="M203,130.9v37.8h-2.6v-37.8H203z"/>
		<path fill="#414141" d="M244.6,130.9v37.8H242v-5.9c-2.2,4-6.6,6.3-11.1,6.3c-7.4,0-13.3-4.9-13.3-13.8c0-8.8,5.9-13.8,13.4-13.8
			c4.6,0,8.9,1.9,11.1,6.3v-16.9H244.6z M220.1,155.3c0,7.4,4.9,11.2,10.9,11.2c6.3,0,10.9-4.6,10.9-11.2c0-6.6-4.8-11.2-10.9-11.2
			C225.1,144.1,220.1,147.8,220.1,155.3z"/>
		<path fill="#414141" d="M310,142c0,8.9,0,17.8,0,26.7h-2.6V163c-2.6,4.2-6.6,6.1-10.9,6.1c-7.4,0-13.5-5.6-13.5-13.8
			c0-8.1,6.1-13.7,13.5-13.7c4.3,0,8.7,2,10.9,6.2V142H310z M285.5,155.3c0,6.7,4.9,11.2,10.9,11.2c14.8,0,14.8-22.3,0-22.3
			C290.4,144.2,285.5,148.6,285.5,155.3z"/>
		<path fill="#414141" d="M365.3,168.7v-16c0-5.1-3.5-8.7-8.5-8.7c-5.1,0-8.6,3.8-8.6,8.9v15.8h-2.6v-15.8c0-5.1-3.5-8.8-8.6-8.8
			c-5.1,0-8.5,3.7-8.5,8.8v15.8h-2.6V142h2.5l0.1,4.4c1.8-3.5,5.2-5,8.7-5c4,0,8.3,1.8,9.9,6.6c1.6-4.4,5.8-6.6,9.9-6.6
			c6.5,0,11.2,4.6,11.2,11.2v16H365.3z"/>
		<path fill="#414141" d="M409.7,142c0,8.9,0,17.8,0,26.7H407V163c-2.6,4.2-6.6,6.1-10.9,6.1c-7.4,0-13.5-5.6-13.5-13.8
			c0-8.1,6.1-13.7,13.5-13.7c4.3,0,8.7,2,10.9,6.2V142H409.7z M385.2,155.3c0,6.7,4.9,11.2,10.9,11.2c14.8,0,14.8-22.3,0-22.3
			C390.1,144.2,385.2,148.6,385.2,155.3z"/>
		<path fill="#414141" d="M424.1,142h20.1v1l-16.8,23.2h16.8v2.5h-20.9v-0.9l17-23.4h-16.1V142z"/>
		<path fill="#414141" d="M461.9,133.3c0,2.8-4.3,2.8-4.3,0C457.6,130.5,461.9,130.5,461.9,133.3z M458.3,141.9v26.8h2.6v-26.8
			H458.3z"/>
		<path fill="#414141" d="M479.8,142v4.7c2-3.7,5.8-5.2,9.5-5.2c7.1,0,12,4.4,12,11.8v15.4h-2.6v-15.3c0-6-3.7-9.3-9.5-9.2
			c-5.5,0.1-9.3,4.2-9.3,9.7v14.8h-2.6V142H479.8z"/>
		<path fill="#414141" d="M538.3,140.9l1.7,1.5l-2.6,3c1.9,2.1,3.3,4.7,3.3,9.1c0,4.6-2.8,9.3-7.2,11.3c4.7,1.7,7.3,5,7.3,9.6
			c0,7.2-5.6,10.6-12.7,10.6c-7.1,0-12.6-3.9-12.6-10.6h2.6c0,5.5,4.6,8,10,8c5.3,0,10.1-2.4,10.1-8c0-5.7-5.1-8-10.1-8
			c-7.7,0-12.5-5.8-12.5-12.9c0-8.3,5.6-13,12.5-13c2.7,0,5.5,1,7.6,2.4L538.3,140.9z M518.3,154.5c0,5.5,3.8,10.3,9.9,10.3
			c5.5,0,10-4.8,10-10.3c0-6.7-4.5-10.4-10-10.4C522.7,144.2,518.3,147.6,518.3,154.5z"/>
		<path fill="#414141" d="M600.1,164.9c-2.7,2.7-6.2,4-9.7,4c-7.5,0-13.7-5.2-13.7-13.6c0-8.4,6-13.6,13.7-13.6c3.5,0,7,1.3,9.7,4
			l-1.7,1.7c-2.2-2.2-5.1-3.2-8-3.2c-6,0-11.1,3.9-11.1,11.1c0,7.2,5.1,11.1,11.1,11.1c2.9,0,5.8-1.1,7.9-3.3L600.1,164.9z"/>
		<path fill="#414141" d="M613.5,155.4c0-8.5,6-13.9,13.5-13.9c7.5,0,13.5,5.4,13.5,13.9c0,8.5-6,13.7-13.5,13.7
			C619.5,169,613.5,163.9,613.5,155.4z M638,155.4c0-6.9-4.9-11.4-11-11.4s-11,4.5-11,11.4c0,6.9,4.9,11.1,11,11.1
			S638,162.3,638,155.4z"/>
		<path fill="#414141" d="M694.8,168.7v-16c0-5.1-3.5-8.7-8.5-8.7c-5.1,0-8.6,3.8-8.6,8.9v15.8h-2.6v-15.8c0-5.1-3.5-8.8-8.6-8.8
			c-5.1,0-8.5,3.7-8.5,8.8v15.8h-2.6V142h2.5l0.1,4.4c1.8-3.5,5.2-5,8.7-5c4,0,8.3,1.8,9.9,6.6c1.6-4.4,5.8-6.6,9.9-6.6
			c6.5,0,11.2,4.6,11.2,11.2v16H694.8z"/>
		<path fill="#414141" d="M713,179.8V142h2.6v6.3c2.1-4,6.4-6.7,11.5-6.7c7.2,0.3,13,5.1,13,13.7c0,9-6,13.8-13.5,13.8
			c-4.5,0-8.7-2.2-11-6.6v17.3H713z M737.5,155.3c0-7.5-4.9-11.2-10.9-11.2c-6.2,0-10.8,4.7-10.8,11.2c0,6.5,4.7,11.2,10.8,11.2
			C732.6,166.6,737.5,162.8,737.5,155.3z"/>
		<path fill="#414141" d="M780.9,142c0,8.9,0,17.8,0,26.7h-2.6V163c-2.6,4.2-6.6,6.1-10.9,6.1c-7.4,0-13.5-5.6-13.5-13.8
			c0-8.1,6.1-13.7,13.5-13.7c4.3,0,8.7,2,10.9,6.2V142H780.9z M756.4,155.3c0,6.7,4.9,11.2,10.9,11.2c14.8,0,14.8-22.3,0-22.3
			C761.3,144.2,756.4,148.6,756.4,155.3z"/>
		<path fill="#414141" d="M799.3,142v4.7c2.1-3.7,5.8-5.2,9.5-5.2c7.1,0,12,4.4,12,11.8v15.4h-2.6v-15.3c0-6-3.7-9.3-9.5-9.2
			c-5.5,0.1-9.3,4.2-9.3,9.7v14.8h-2.6V142H799.3z"/>
		<path fill="#414141" d="M839.8,133.3c0,2.8-4.3,2.8-4.3,0C835.6,130.5,839.8,130.5,839.8,133.3z M836.3,141.9v26.8h2.6v-26.8
			H836.3z"/>
		<path fill="#414141" d="M853.7,155.3c0-8,6-13.8,13.5-13.8c7.5,0,14.2,4.6,13.2,15h-24c0.5,6.3,5.3,9.9,10.8,9.9
			c3.5,0,7.6-1.4,9.6-4l1.9,1.5c-2.6,3.4-7.2,5.1-11.5,5.1C859.7,169,853.7,163.8,853.7,155.3z M878,154.3
			c-0.1-6.6-4.4-10.3-10.8-10.3c-5.5,0-10.3,3.7-10.8,10.3H878z"/>
		<path fill="#414141" d="M914.2,146.9c-2.7-2.4-5.3-2.8-8.3-2.8c-4.2-0.1-8.2,1.5-8,4.9c0.1,3.6,4.7,4.3,8.1,4.9
			c4.7,0.8,11.3,1.6,11,7.8c-0.2,5.9-6.3,7.5-11,7.5c-4.7,0-9.3-1.8-11.7-5.3l1.9-1.7c2.2,3.2,6.2,4.5,9.8,4.5
			c3.2,0,8.1-0.9,8.3-5.1c0.1-3.8-4.3-4.6-8.7-5.3c-5.2-0.9-10.3-1.8-10.4-7.2c-0.1-5.2,5.2-7.5,10.6-7.4c3.9,0,7.3,1.1,9.9,3.6
			L914.2,146.9z"/>
	</g>
</g>
</svg>
